<?xml version="1.0" standalone="no"?>
<!DOCTYPE svg PUBLIC "-//W3C//DTD SVG 20010904//EN"
 "http://www.w3.org/TR/2001/REC-SVG-20010904/DTD/svg10.dtd">
<svg version="1.0" xmlns="http://www.w3.org/2000/svg"
 width="700.000000pt" height="700.000000pt" viewBox="0 0 700.000000 700.000000"
 preserveAspectRatio="xMidYMid meet">
<metadata>
Created by potrace 1.14, written by Peter Selinger 2001-2017
</metadata>
<g transform="translate(0.000000,700.000000) scale(0.100000,-0.100000)"
fill="#000000" stroke="none">
<path d="M4031 6983 c-18 -9 -45 -34 -59 -56 l-26 -39 -2 -907 c-1 -498 -3
-908 -3 -911 -1 -3 -855 -5 -1899 -5 -1771 -1 -1899 -2 -1929 -18 -42 -22 -81
-64 -99 -104 -12 -27 -14 -311 -14 -1833 0 -1987 -5 -1844 63 -1903 67 -60 4
-57 1172 -57 850 0 1074 -3 1077 -12 3 -11 2 -426 -1 -494 l-1 -22 -434 0
c-401 0 -436 -1 -465 -18 -17 -10 -34 -29 -39 -43 -5 -15 -8 -133 -8 -264 l1
-239 33 -29 32 -29 2726 0 2726 0 40 22 c24 14 48 38 59 60 19 36 19 118 19
3418 0 3300 0 3382 -19 3418 -11 22 -35 46 -59 60 l-40 22 -1408 0 c-1289 0
-1412 -2 -1443 -17z m-86 -6095 l0 -263 -392 -1 -392 -2 -3 32 c-2 17 -2 136
0 264 l3 232 392 0 392 0 0 -262z"/>
</g>
</svg>
